# xmcd
#
# Track frame offsets:
#       150
#       8406
#       16947
#       26281
#       41242
#       50108
#       63737
#       75869
#       82059
#       90410
#       105053
#       113985
#       121846
#       135467
#
# Disc length: 1920 seconds
#
# Revision: 1
# Processed by: cddbd v1.5.2PL0 Copyright (c) Steve Scherf et al.
# Submitted via: FreeDbEdit v0.1
#
DISCID=9c077e0e
DTITLE=Tennessee Ernie Ford - Sing a Spiritual With Me
DYEAR=1900
DGENRE=
TTITLE0=O Mary, Don't You Weep
TTITLE1=I Want to Be Ready
TTITLE2=I Know the Lord's Laid His Hands on Me
TTITLE3=Steal Away
TTITLE4=Old Time Religion
TTITLE5=Go Down, Moses
TTITLE6=Ain't Gonna Study War No More
TTITLE7=Joshua Fit the Battle of Jericho
TTITLE8=Swing Low, Sweet Chariot
TTITLE9=Were You There
TTITLE10=Nobody Knows the Trouble I've Seen
TTITLE11=Roll. Jordan Roll
TTITLE12=Hold On. Keep Your Hand on the Plow
TTITLE13=Standin' in the Need of Prayer
EXTD=
EXTT0=
EXTT1=
EXTT2=
EXTT3=
EXTT4=
EXTT5=
EXTT6=
EXTT7=
EXTT8=
EXTT9=
EXTT10=
EXTT11=
EXTT12=
EXTT13=
PLAYORDER=
